<?xml version="1.0" standalone="no"?>
<!DOCTYPE svg PUBLIC "-//W3C//DTD SVG 20010904//EN"
 "http://www.w3.org/TR/2001/REC-SVG-20010904/DTD/svg10.dtd">
<svg version="1.0" xmlns="http://www.w3.org/2000/svg"
 width="32.000000pt" height="32.000000pt" viewBox="0 0 32.000000 32.000000"
 preserveAspectRatio="xMidYMid meet">

<g transform="translate(0.000000,32.000000) scale(0.100000,-0.100000)"
fill="#000000" stroke="none">
<path d="M95 306 c-101 -44 -125 -178 -46 -257 65 -65 157 -65 222 0 124 124
-15 327 -176 257z m129 -82 c21 -21 21 -107 0 -128 -21 -21 -107 -21 -128 0
-21 21 -21 107 0 128 21 21 107 21 128 0z"/>
<path d="M104 207 c-3 -8 -4 -34 -2 -58 l3 -44 55 0 55 0 0 55 0 55 -53 3
c-38 2 -54 -1 -58 -11z m106 -7 c0 -5 -4 -10 -10 -10 -5 0 -10 5 -10 10 0 6 5
10 10 10 6 0 10 -4 10 -10z m-20 -15 c26 -32 -13 -81 -47 -59 -23 14 -28 41
-13 59 16 19 44 19 60 0z"/>
<path d="M140 160 c0 -13 7 -20 20 -20 13 0 20 7 20 20 0 13 -7 20 -20 20 -13
0 -20 -7 -20 -20z"/>
</g>
</svg>
