<?xml version="1.0" standalone="no"?>
<!DOCTYPE svg PUBLIC "-//W3C//DTD SVG 20010904//EN"
 "http://www.w3.org/TR/2001/REC-SVG-20010904/DTD/svg10.dtd">
<svg version="1.0" xmlns="http://www.w3.org/2000/svg"
 width="32.000000pt" height="32.000000pt" viewBox="0 0 32.000000 32.000000"
 preserveAspectRatio="xMidYMid meet">

<g transform="translate(0.000000,32.000000) scale(0.100000,-0.100000)"
fill="#000000" stroke="none">
<path d="M95 306 c-101 -44 -125 -178 -46 -257 65 -65 157 -65 222 0 124 124
-15 327 -176 257z m115 -86 c11 -11 20 -24 20 -30 0 -5 -9 -10 -20 -10 -16 0
-20 -7 -20 -38 0 -45 -14 -62 -50 -62 -33 0 -50 17 -50 50 0 30 17 50 42 50
22 0 24 -18 3 -26 -19 -8 -19 -40 0 -48 21 -8 35 25 35 83 0 55 9 62 40 31z"/>
</g>
</svg>
