<?xml version="1.0" standalone="no"?>
<!DOCTYPE svg PUBLIC "-//W3C//DTD SVG 20010904//EN"
 "http://www.w3.org/TR/2001/REC-SVG-20010904/DTD/svg10.dtd">
<svg version="1.0" xmlns="http://www.w3.org/2000/svg"
 width="32.000000pt" height="32.000000pt" viewBox="0 0 32.000000 32.000000"
 preserveAspectRatio="xMidYMid meet">

<g transform="translate(0.000000,32.000000) scale(0.100000,-0.100000)"
fill="#000000" stroke="none">
<path d="M95 306 c-101 -44 -125 -178 -46 -257 65 -65 157 -65 222 0 124 124
-15 327 -176 257z m108 -57 c29 -13 57 -58 57 -93 0 -14 -13 -40 -28 -57 -27
-30 -34 -32 -98 -34 l-69 -2 -2 56 c-1 31 3 69 9 84 18 48 80 69 131 46z"/>
<path d="M124 228 c-30 -14 -45 -52 -38 -97 6 -36 9 -39 46 -45 46 -8 82 10
100 49 14 32 -5 78 -38 94 -30 13 -42 13 -70 -1z m16 -47 c0 -24 20 -41 48
-41 26 0 26 -23 0 -28 -35 -7 -94 68 -72 91 10 10 24 -2 24 -22z"/>
</g>
</svg>
